<svg width="287" height="287" viewBox="0 0 287 287" fill="none" xmlns="http://www.w3.org/2000/svg">
<g clip-path="url(#clip0_195_11241)">
<path d="M202.119 123.16C202.098 131.25 198.875 139.004 193.154 144.725C187.433 150.445 179.68 153.669 171.589 153.69H149.749L129.289 92.6399H171.599C179.686 92.6636 187.435 95.8867 193.154 101.605C198.872 107.324 202.095 115.073 202.119 123.16Z" fill="#0095DA"/>
<path d="M84.3102 163.17C84.3762 155.081 87.6413 147.347 93.3919 141.659C99.1426 135.97 106.911 132.788 115 132.81L136.84 132.93L157 194.09L114.69 193.86C106.598 193.799 98.859 190.536 93.1659 184.785C87.4728 179.034 84.2888 171.262 84.3102 163.17Z" fill="#013E59"/>
<path d="M225.46 143.64C225.46 98.2367 188.653 61.43 143.25 61.43C97.8467 61.43 61.04 98.2367 61.04 143.64C61.04 189.043 97.8467 225.85 143.25 225.85C188.653 225.85 225.46 189.043 225.46 143.64Z" stroke="#0095DA" stroke-width="1.43" stroke-miterlimit="10"/>
<circle opacity="0.5" cx="143.5" cy="143.5" r="112" stroke="#0095DA"/>
<circle opacity="0.2" cx="143.5" cy="143.5" r="143" stroke="#0095DA"/>
</g>
<defs>
<clipPath id="clip0_195_11241">
<rect width="286.56" height="286.56" fill="white"/>
</clipPath>
</defs>
</svg>
