<svg width="135" height="154" viewBox="0 0 135 154" fill="none" xmlns="http://www.w3.org/2000/svg">
<g clip-path="url(#clip0_156_1397)">
<path d="M28.8047 125.07V110.227H32.8746C33.3169 110.192 33.7614 110.253 34.178 110.406C34.5945 110.559 34.9732 110.801 35.2884 111.114C35.8742 111.848 36.1632 112.777 36.0977 113.715V120.67C36.1644 121.803 35.9099 122.933 35.3637 123.927C34.8743 124.692 34.0149 125.074 32.7852 125.074L28.8047 125.07ZM31.7783 122.445H32.2912C32.3999 122.462 32.511 122.453 32.6158 122.419C32.7207 122.386 32.8163 122.329 32.8952 122.252C32.9741 122.175 33.0342 122.081 33.0706 121.976C33.107 121.872 33.1189 121.761 33.1052 121.652V113.999C33.1419 113.671 33.0726 113.34 32.9076 113.055C32.6781 112.879 32.3892 112.801 32.103 112.837H31.7736L31.7783 122.445Z" fill="#0095DA"/>
<path d="M37.4062 125.07V110.227H40.2623V125.07H37.4062Z" fill="#0095DA"/>
<path d="M41.2637 125.07V122.369L44.6514 112.955H41.593V110.222H47.7709V112.833L44.322 122.336H47.6156V125.07H41.2637Z" fill="#0095DA"/>
<path d="M49.0938 125.07V110.227H51.9498V125.07H49.0938Z" fill="#0095DA"/>
<path d="M56.8385 125.207C56.3621 125.227 55.8866 125.148 55.442 124.975C54.9975 124.802 54.5934 124.538 54.2554 124.201C53.9143 123.822 53.6521 123.378 53.4841 122.895C53.316 122.413 53.2455 121.902 53.2767 121.392V114.546C53.2767 113.108 53.5606 112.007 54.1283 111.242C54.6961 110.477 55.6214 110.094 56.9044 110.094C57.5527 110.081 58.1959 110.213 58.7864 110.482C59.3219 110.731 59.7708 111.136 60.0756 111.643C60.4094 112.235 60.5723 112.908 60.5462 113.588V116.137H57.6054V113.947C57.6341 113.638 57.5754 113.327 57.4361 113.05C57.3749 112.971 57.2951 112.909 57.204 112.868C57.1128 112.828 57.0131 112.811 56.9138 112.819C56.8021 112.806 56.6893 112.828 56.5901 112.881C56.491 112.934 56.4103 113.016 56.3586 113.116C56.2537 113.368 56.2055 113.641 56.2174 113.914V121.331C56.1913 121.631 56.2535 121.933 56.3962 122.199C56.4541 122.282 56.5318 122.349 56.6223 122.393C56.7128 122.438 56.8131 122.459 56.9138 122.454C57.0234 122.462 57.1327 122.436 57.2276 122.381C57.3225 122.325 57.3984 122.242 57.4455 122.143C57.5582 121.889 57.6113 121.613 57.6007 121.335V118.663H60.5744V121.472C60.5744 122.775 60.2466 123.719 59.591 124.305C58.8189 124.941 57.8363 125.263 56.8385 125.207Z" fill="#013E59"/>
<path d="M61.5811 125.07L62.9926 110.227H68.013L69.4245 125.07H66.625L66.4132 122.676H64.63L64.4465 125.07H61.5811ZM64.8229 120.306H66.1686L65.5193 112.752H65.4016L64.8229 120.306Z" fill="#013E59"/>
<path d="M74.2427 125.206C72.8908 125.206 71.9168 124.87 71.3208 124.196C70.7248 123.523 70.4269 122.449 70.4269 120.976V119.527H73.3535V121.382C73.3393 121.66 73.3926 121.937 73.5087 122.19C73.5606 122.286 73.6395 122.365 73.7357 122.417C73.8318 122.469 73.941 122.492 74.0498 122.482C74.1555 122.494 74.2625 122.479 74.3605 122.438C74.4585 122.396 74.5444 122.331 74.6097 122.246C74.7315 122.008 74.7852 121.74 74.765 121.472C74.773 121.087 74.7271 120.702 74.6285 120.33C74.5305 120.009 74.3706 119.711 74.158 119.452C73.867 119.106 73.5525 118.781 73.217 118.479L71.8902 117.214C71.4292 116.813 71.0583 116.319 70.802 115.764C70.5457 115.209 70.4098 114.606 70.4033 113.994C70.3328 112.954 70.6459 111.924 71.2832 111.1C71.6082 110.757 72.0042 110.491 72.4432 110.319C72.8822 110.146 73.3536 110.073 73.824 110.104C75.179 110.104 76.142 110.466 76.7129 111.19C77.2838 111.914 77.5677 113.015 77.5646 114.494H74.5533V113.475C74.5583 113.388 74.5454 113.302 74.5154 113.22C74.4855 113.139 74.4391 113.065 74.3792 113.003C74.2391 112.888 74.0628 112.828 73.8822 112.833C73.7017 112.839 73.5291 112.909 73.3958 113.031C73.2822 113.176 73.2238 113.357 73.2311 113.541C73.2377 113.776 73.2955 114.006 73.4005 114.216C73.5698 114.532 73.7946 114.815 74.0639 115.052L75.7719 116.694C76.1095 117.016 76.4239 117.362 76.7129 117.728C77.0082 118.11 77.2402 118.538 77.3999 118.994C77.5865 119.561 77.674 120.157 77.6587 120.755C77.7204 121.898 77.4526 123.036 76.887 124.031C76.3977 124.815 75.5162 125.206 74.2427 125.206Z" fill="#013E59"/>
<path d="M78.9102 125.07V110.227H81.8697V115.533H83.2812V110.227H86.2219V125.07H83.2812V118.342H81.8697V125.074L78.9102 125.07Z" fill="#013E59"/>
<path d="M87.5156 125.07V110.227H90.3717V125.07H87.5156Z" fill="#013E59"/>
<path d="M91.6934 125.07V110.227H97.6124V113.092H94.7046V115.986H97.4948V118.776H94.7046V122.176H97.8053V125.07H91.6934Z" fill="#013E59"/>
<path d="M98.9395 125.07V110.227H103.48C104.095 110.182 104.705 110.367 105.193 110.746C105.601 111.132 105.873 111.641 105.969 112.195C106.11 112.917 106.176 113.651 106.167 114.386C106.192 115.046 106.088 115.706 105.861 116.326C105.755 116.57 105.596 116.787 105.396 116.961C105.195 117.135 104.959 117.262 104.703 117.332C104.909 117.362 105.105 117.441 105.275 117.562C105.445 117.682 105.584 117.841 105.682 118.026C105.884 118.469 105.981 118.954 105.964 119.442V125.06H103.042V119.258C103.042 118.824 102.955 118.554 102.779 118.451C102.512 118.329 102.22 118.275 101.927 118.295V125.07H98.9395ZM101.951 115.727H102.666C103.074 115.727 103.278 115.28 103.278 114.386C103.304 114.001 103.258 113.615 103.141 113.248C103.093 113.158 103.02 113.085 102.93 113.037C102.841 112.989 102.739 112.969 102.638 112.979H101.946L101.951 115.727Z" fill="#013E59"/>
<path d="M95.1855 58.0687C95.1756 61.8882 93.659 65.5485 90.9672 68.2494C88.2754 70.9502 84.6275 72.472 80.8207 72.482H70.5447L60.918 43.6648H80.8254C84.6297 43.676 88.2751 45.197 90.9656 47.8957C93.6561 50.5944 95.1731 54.2515 95.1855 58.0687Z" fill="#0095DA"/>
<path d="M39.754 76.9527C39.785 73.134 41.3213 69.4829 44.0271 66.7972C46.7328 64.1115 50.3881 62.6096 54.194 62.6197L64.4701 62.6763L73.9462 91.5501L54.0388 91.4416C50.2329 91.4104 46.594 89.8689 43.9174 87.154C41.2407 84.4392 39.7439 80.7716 39.754 76.9527Z" fill="#013E59"/>
<path d="M106.167 67.7421C106.167 46.3071 88.8486 28.9305 67.4857 28.9305C46.1228 28.9305 28.8047 46.3071 28.8047 67.7421C28.8047 89.1772 46.1228 106.554 67.4857 106.554C88.8486 106.554 106.167 89.1772 106.167 67.7421Z" stroke="#0095DA" stroke-width="1.43" stroke-miterlimit="10"/>
</g>
<defs>
<clipPath id="clip0_156_1397">
<rect width="135" height="154" fill="white"/>
</clipPath>
</defs>
</svg>
